<?xml version="1.0" encoding="utf-8"?>
<!-- Generator: Adobe Illustrator 16.0.0, SVG Export Plug-In . SVG Version: 6.00 Build 0)  -->
<!DOCTYPE svg PUBLIC "-//W3C//DTD SVG 1.1//EN" "http://www.w3.org/Graphics/SVG/1.1/DTD/svg11.dtd">
<svg version="1.1" id="Layer_1" xmlns="http://www.w3.org/2000/svg" xmlns:xlink="http://www.w3.org/1999/xlink" x="0px" y="0px"
	 width="405.5px" height="453.88px" viewBox="0 0 405.5 453.88" enable-background="new 0 0 405.5 453.88" xml:space="preserve">
<g display="none">
	<path display="inline" d="M290.292,630.244l35.496-23.256L51,427.06l-274.788,179.929l35.496,23.256l-35.496,23.256l35.496,23.256
		l-35.496,23.256L51,879.939l274.788-179.928l-35.496-23.256l35.496-23.256L290.292,630.244z M51,434.404l263.772,172.584
		L51,779.572l-263.772-172.584L51,434.404z M-212.772,653.5l29.988-19.584L51,786.916l233.784-153l29.988,19.584L51,826.084
		L-212.772,653.5z M51,872.596l-263.772-172.584l29.988-19.584L51,833.428l233.784-153l29.988,19.584L51,872.596z"/>
</g>
<g display="none">
	<g display="inline">
		<path d="M313.548,812.62h-525.096c-7.344,0-12.853-5.509-12.853-12.853V427.672c0-7.344,5.508-12.852,12.853-12.852h525.096
			c7.344,0,12.853,5.508,12.853,12.852v372.096C326.4,807.111,320.892,812.62,313.548,812.62z M-211.548,420.939
			c-3.672,0-6.732,3.061-6.732,6.732v372.096c0,3.672,3.061,6.732,6.732,6.732h525.096c3.672,0,6.732-3.061,6.732-6.732V427.672
			c0-3.672-3.061-6.732-6.732-6.732H-211.548z"/>
	</g>
	<g display="inline">
		<rect x="-224.4" y="445.42" width="544.68" height="6.12"/>
	</g>
	<g display="inline">
		<rect x="-224.4" y="720.82" width="544.68" height="6.119"/>
	</g>
	<g display="inline">
		<polygon points="228.48,714.7 222.36,714.7 222.36,500.5 -126.48,500.5 -126.48,714.7 -132.6,714.7 -132.6,494.38 228.48,494.38 
					"/>
	</g>
	<g display="inline">
		<rect x="-83.64" y="549.46" width="177.48" height="6.12"/>
	</g>
	<g display="inline">
		<rect x="-83.64" y="586.18" width="79.56" height="6.12"/>
	</g>
	<g display="inline">
		<rect x="-83.64" y="616.779" width="226.44" height="6.121"/>
	</g>
	<g display="inline">
		<path d="M51,787.527c-11.016,0-19.584-8.567-19.584-19.584c0-11.016,8.568-19.584,19.584-19.584s19.584,8.568,19.584,19.584
			C70.584,778.96,62.016,787.527,51,787.527z M51,754.48c-7.344,0-13.464,6.119-13.464,13.463c0,7.345,6.12,13.465,13.464,13.465
			s13.464-6.12,13.464-13.465C64.464,760.6,58.344,754.48,51,754.48z"/>
	</g>
	<g display="inline">
		<path d="M106.08,892.18H-4.08l6.732-85.68h96.696L106.08,892.18z M2.652,886.06h96.696L93.84,812.62H8.16L2.652,886.06z"/>
	</g>
	<g display="inline">
		<rect x="-11.424" y="886.06" width="125.46" height="6.12"/>
	</g>
</g>
<g display="none">
	<path display="inline" d="M-20.604,827.308c-17.136,0-34.272-2.448-51.408-6.731l-1.836-0.612L-86.7,765.496
		c-4.896-2.448-9.18-4.896-14.076-7.956l-52.632,18.36l-1.224-1.225c-15.3-13.464-28.152-29.988-37.944-47.124l-1.224-1.836
		l29.376-47.735c-1.836-4.896-3.06-10.404-4.284-15.301l-50.184-24.479v-1.836c0-2.448,0-5.509,0-7.956
		c0-17.748,1.836-35.496,6.732-52.633l0.612-1.835l54.468-12.853c2.448-4.896,4.896-9.18,7.956-14.076l-18.36-52.632l1.224-1.224
		c13.464-15.301,29.376-28.152,47.124-37.944l1.836-0.612l47.736,29.376c4.896-1.836,10.404-3.06,15.3-4.284l24.479-50.184h1.836
		c2.448,0,5.508,0,7.956,0h1.224c17.136,0,34.271,2.447,51.408,6.732l1.836,0.611l12.852,54.468
		c4.896,2.448,9.18,4.896,14.076,7.956l52.632-18.359l1.224,1.224c15.3,13.464,28.152,29.376,37.944,47.124l0.612,1.836
		l-29.376,47.736c1.836,4.896,3.06,10.404,4.284,15.3l50.184,24.479v2.448c0,2.448,0,4.896,0,7.345
		c0,17.747-1.836,35.495-6.732,52.632l-0.612,1.836l-54.468,12.852c-2.448,4.896-4.896,9.181-7.956,14.076l18.36,52.632
		l-1.224,1.225c-13.464,15.3-29.376,28.151-47.124,37.943l-1.836,0.612L29.58,772.84c-4.896,1.836-10.404,3.061-15.3,4.284
		l-24.48,50.185h-1.836c-3.06,0-5.508,0-7.956,0L-20.604,827.308z M-68.34,815.068c15.912,4.283,31.824,6.119,47.736,6.119h1.224
		c1.836,0,4.284,0,6.12,0l23.868-49.572l1.224-0.611c6.12-1.225,11.628-3.061,17.748-4.896l1.224-0.611l47.124,28.764
		c15.912-9.792,30.6-21.42,42.84-34.884l-18.36-52.021l0.612-1.224c3.06-5.508,6.12-10.404,8.568-15.912l0.612-1.224l53.855-12.853
		c4.284-15.912,6.12-32.436,6.12-48.96c0-1.836,0-4.284,0-6.12l-49.572-23.868l-0.612-1.224c-1.224-6.12-3.06-11.628-4.896-17.748
		L116.484,577l28.764-47.125c-9.792-15.912-21.42-30.6-34.884-42.84l-52.02,18.36l-1.224-0.612
		c-5.508-3.06-10.404-6.12-15.912-8.568l-1.224-0.611l-12.852-53.855c-15.912-4.285-31.824-6.121-47.736-6.121h-1.224
		c-1.836,0-4.284,0-6.12,0l-23.868,49.572l-1.224,0.612c-6.12,1.224-11.628,3.06-17.748,4.896l-1.224,0.612l-47.124-28.764
		c-15.912,9.792-30.6,21.42-42.84,34.884l18.36,52.02l-0.612,1.225c-3.06,5.508-6.12,10.404-8.568,15.912l-0.612,1.224
		l-53.856,12.853c-4.284,15.912-6.12,32.436-6.12,48.96c0,1.836,0,4.284,0,6.12l49.572,23.867l0.612,1.225
		c1.224,6.12,3.06,11.628,4.896,17.748l0.612,1.225l-28.764,47.123c9.792,15.912,21.42,30.601,34.884,42.84l52.021-18.359
		l1.224,0.612c5.508,3.06,10.404,6.12,15.912,8.567l1.224,0.612L-68.34,815.068z"/>
	<path display="inline" d="M224.196,869.536c-7.956,0-16.524-1.225-23.868-3.061l-1.836-0.612l-9.792-26.315
		c-5.508-3.06-11.016-6.731-15.912-11.016l-28.764,1.224l-1.224-1.224c-7.344-9.792-13.464-21.421-16.524-33.66l-0.612-1.836
		l18.972-23.256c0-0.612,0-1.225,0-2.448c0-4.284,0.612-8.568,1.224-13.464l-16.524-25.093l0.612-1.224
		c4.896-11.628,12.24-22.644,20.808-31.824l1.224-1.224l29.988,4.896c4.284-2.448,8.568-4.896,12.852-6.731l13.464-26.928h1.836
		c13.464-1.836,25.704-1.225,37.944,1.836l1.836,0.611l9.792,26.928c5.508,2.448,10.404,5.508,14.688,9.181l28.152-1.225
		l1.224,1.225c7.956,10.403,13.464,21.42,17.136,33.659l0.612,1.836L304.368,760.6c0,2.447,0.612,4.896,0.612,6.732
		c0,4.896-0.612,9.18-1.224,14.075l14.688,22.645l-0.612,1.224c-4.896,11.628-11.628,22.032-20.196,31.212l-1.224,1.225
		l-26.316-4.284c-6.12,4.284-12.852,7.344-19.584,9.792l-12.24,23.868h-1.836C232.764,869.536,228.48,869.536,224.196,869.536z
		 M202.776,860.968c10.404,2.448,20.808,3.06,31.824,1.836l11.628-23.256l1.224-0.612c7.344-2.447,14.076-5.508,20.196-9.792
		l1.224-0.612l25.704,4.285c7.344-7.957,12.852-17.137,17.136-26.929l-14.076-22.032v-1.224c0.612-4.896,1.224-9.181,1.224-14.076
		c0-2.448,0-4.896-0.612-7.956v-1.224l16.523-20.196c-3.06-10.404-7.956-20.195-14.688-28.764l-27.54,1.224l-0.612-0.612
		c-4.284-3.672-9.792-6.731-15.3-9.791l-1.224-0.612l-9.792-26.316c-10.404-2.448-21.42-3.06-32.436-1.836l-13.464,25.704
		l-1.224,0.612c-4.896,1.836-9.792,4.284-14.076,7.344l-1.224,0.612l-28.764-4.896c-7.344,7.957-13.464,17.137-17.748,26.929
		l15.912,24.479v1.225c-0.612,4.896-1.224,9.18-1.224,13.464c0,0.612,0,1.224,0,1.836v2.448l-18.36,22.644
		c3.06,10.404,7.956,20.196,14.076,28.765l27.54-1.225l1.224,0.612c4.896,4.284,10.404,7.956,16.524,11.016l1.224,0.612
		L202.776,860.968z"/>
	<path display="inline" d="M225.42,815.68c-26.316,0-47.124-21.42-47.124-47.124c0-26.315,21.42-47.124,47.124-47.124
		c26.316,0,47.124,21.42,47.124,47.124C272.544,794.872,251.124,815.68,225.42,815.68z M225.42,727.552
		c-22.644,0-41.004,18.36-41.004,41.004c0,22.645,18.36,41.005,41.004,41.005s41.004-18.36,41.004-41.005
		C266.424,745.912,248.064,727.552,225.42,727.552z"/>
	<path display="inline" d="M225.42,800.38c-17.136,0-31.212-14.076-31.212-31.212s14.076-31.212,31.212-31.212
		c17.136,0,31.212,14.075,31.212,31.212C256.632,786.304,242.556,800.38,225.42,800.38z M225.42,743.464
		c-14.076,0-25.092,11.628-25.092,25.092c0,14.076,11.628,25.093,25.092,25.093c14.076,0,25.092-11.629,25.092-25.093
		S239.496,743.464,225.42,743.464z"/>
	<path display="inline" d="M-19.38,710.416c-45.9,0-82.62-37.332-82.62-82.62c0-45.9,37.332-82.62,82.62-82.62
		c45.9,0,82.62,37.332,82.62,82.62C63.24,673.695,25.908,710.416-19.38,710.416z M-19.38,551.296c-42.228,0-76.5,34.272-76.5,76.5
		s34.272,76.5,76.5,76.5s76.5-34.272,76.5-76.5S22.848,551.296-19.38,551.296z"/>
	<path display="inline" d="M-19.38,693.279c-36.108,0-64.872-29.375-64.872-64.871c0-36.108,29.376-64.872,64.872-64.872
		c36.108,0,64.872,29.376,64.872,64.872S16.116,693.279-19.38,693.279z M-19.38,569.044c-32.436,0-58.752,26.315-58.752,58.752
		s26.316,58.752,58.752,58.752s58.752-26.315,58.752-58.752S13.056,569.044-19.38,569.044z"/>
</g>
<g display="none">
	<g display="inline">
		<path d="M51,925.228c-149.94,0-272.34-122.399-272.34-272.34S-98.94,380.548,51,380.548s272.34,122.399,272.34,272.34
			C322.728,803.439,200.94,925.228,51,925.228z M51,387.28c-146.88,0-266.22,119.34-266.22,266.22S-95.88,919.72,51,919.72
			S317.22,800.38,317.22,653.5C316.608,506.62,197.268,387.28,51,387.28z"/>
	</g>
	<g display="inline">
		<path d="M156.876,897.076c-8.568,0-17.748-2.448-25.704-9.793c-11.016-9.791-14.076-22.644-16.524-34.884
			c-2.448-11.016-4.896-22.032-12.852-31.212c-15.3-20.808-23.256-22.032-45.9-25.092l-5.508-0.612
			c-8.568-0.612-18.972-12.852-23.868-24.479s-4.896-21.42,0.612-27.54l0.612-0.612c11.628-6.732,25.092-7.956,37.332-8.568
			c17.748-1.836,31.824-3.06,36.108-18.359c6.12-22.032,16.524-32.437,24.48-41.004c8.568-8.568,14.076-14.076,11.628-28.152
			c-1.836-13.464-7.344-22.645-16.524-28.152s-22.032-5.508-35.496,0c-12.852,4.284-17.136,15.301-22.032,26.928
			c-3.06,7.345-6.12,15.301-11.628,20.809c-5.508,5.508-10.404,4.284-14.076,3.672c-3.06-0.612-4.896-1.225-7.344,0.612
			c-9.792,7.956-16.524,18.359-22.645,27.54c-13.464,20.808-26.315,40.392-70.992,29.375l-1.836-0.611l-0.612-1.836
			c-3.06-14.076,1.224-31.212,4.896-47.124c6.732-25.704,12.852-50.185-6.12-67.933c-3.672-3.672-6.12-6.731-7.956-8.567
			c0-0.612-0.612-0.612-0.612-1.225c-1.836,1.836-5.508,5.509-12.852,9.792c-3.672,1.836-6.732,4.896-10.404,7.956
			c-8.568,7.956-19.584,17.748-34.272,4.896c-15.3-11.017-9.18-19.585-4.284-26.316c3.06-4.284,6.12-8.567,5.508-14.688
			c0-7.345-3.06-10.404-7.344-14.688c-3.672-3.672-7.956-7.955-10.404-15.912c-5.508-16.523-0.612-32.436,4.284-48.96
			c4.284-14.075,8.568-28.151,7.956-44.676l6.12-0.612c0.612,17.137-3.672,32.437-7.956,46.513
			c-4.896,16.524-9.18,30.6-4.284,45.899c1.836,6.732,4.896,9.793,8.568,13.465c4.284,4.283,9.18,9.18,9.18,18.359
			c0.612,7.956-3.06,13.465-6.732,18.36c-4.896,6.731-7.344,10.403,3.06,17.748c10.404,9.18,16.524,4.284,26.316-4.896
			c3.672-3.06,7.344-6.731,11.628-9.18c7.344-4.284,10.404-7.344,11.628-9.18c1.224-1.225,2.448-2.448,4.284-2.448
			s3.06,1.225,5.508,3.672c1.224,1.836,3.672,4.284,7.344,7.956c21.42,20.196,14.688,47.124,7.956,73.44
			c-3.672,15.3-7.344,29.987-5.508,42.84c39.168,9.18,49.572-6.732,62.424-26.928c6.12-9.793,13.464-20.196,23.868-29.377
			c4.896-3.672,9.18-2.447,12.852-1.836c3.672,0.612,5.508,1.225,8.568-1.836c4.896-4.896,7.344-11.627,10.404-18.972
			c4.896-11.628,9.792-25.092,25.704-29.987c15.3-6.12,29.376-6.12,40.392,0.611c10.404,6.12,17.136,17.748,18.972,32.437
			c3.06,17.747-4.284,25.092-13.464,33.659c-8.568,7.956-17.748,17.137-23.256,37.944c-5.508,19.584-23.868,21.42-41.616,23.256
			c-11.628,1.225-23.868,1.836-34.272,7.956c-3.06,4.284-3.06,12.24,0.612,20.809C35.7,778.959,44.88,788.14,49.776,788.14
			l6.12,0.612c23.256,3.06,32.436,4.283,49.572,26.928c8.568,10.404,11.628,22.644,14.076,33.66
			c2.448,12.24,5.508,23.256,14.688,31.824c15.912,14.075,36.108,7.955,48.348-1.225c11.628-9.18,21.42-25.092,14.688-39.168
			c-16.524-34.271,3.06-75.275,20.196-111.384c12.24-26.316,24.48-50.796,17.136-64.872c-3.672-6.732-11.016-11.016-23.868-13.465
			c-17.136-3.06-26.928-8.567-29.376-17.135c-2.448-9.181,4.284-20.809,20.196-33.66c3.672-2.448,9.18-5.508,15.912-8.568
			c17.136-8.568,41.616-20.196,37.332-35.496c-1.836-5.508-10.404-11.016-17.748-15.912c-10.404-6.732-21.42-14.076-18.972-24.479
			c2.448-11.017,12.852-9.181,19.584-8.568c7.344,1.224,12.24,1.224,15.912-2.448c2.448-3.06,3.672-6.119,3.672-9.792
			c-0.612-11.016-12.24-25.704-33.66-44.063l3.672-4.896c23.256,19.584,34.884,35.496,35.496,48.348
			c0.612,5.509-1.224,10.404-4.896,14.076c-5.508,6.732-14.076,5.508-21.42,4.284c-8.568-1.224-11.628-1.224-12.852,3.673
			c-1.836,6.731,7.344,12.239,16.524,17.747c8.568,5.509,17.748,11.017,20.196,18.973c4.896,20.195-21.42,33.048-40.392,42.84
			c-6.12,3.06-11.628,5.508-14.688,7.956c-13.464,11.628-19.584,20.808-17.748,27.54c1.836,6.12,9.792,10.403,24.48,12.852
			s23.868,7.956,28.152,16.524c8.568,16.523-3.06,41.615-17.136,70.38c-16.524,34.884-35.496,74.052-20.196,105.876
			c7.956,17.136-2.448,35.496-16.524,46.512C178.908,892.792,167.892,897.076,156.876,897.076z"/>
	</g>
</g>
<g>
	<path d="M246.38,135.641h42.84V62.2h-42.84V135.641z M252.5,68.32h30.6v61.2h-30.6V68.32z"/>
	<path d="M325.939,135.641h42.84V62.2h-42.84V135.641z M332.061,68.32h30.6v61.2h-30.6V68.32z"/>
	<path d="M246.38,239.681h42.84v-73.44h-42.84V239.681z M252.5,172.36h30.6v61.2h-30.6V172.36z"/>
	<path d="M325.939,239.681h42.84v-73.44h-42.84V239.681z M332.061,172.36h30.6v61.2h-30.6V172.36z"/>
	<path d="M246.38,337.601h42.84v-67.32h-42.84V337.601z M252.5,276.4h30.6v55.08h-30.6V276.4z"/>
	<path d="M325.939,337.601h42.84v-67.32h-42.84V337.601z M332.061,276.4h30.6v55.08h-30.6V276.4z"/>
	<path d="M405.5,129.521V1H209.66v192.168L44.42,231.724L2.804,247.636l2.448,5.509l39.168-14.688V453.88h48.96h73.44h42.84h6.12
		h55.08h73.44h55.08h6.12 M405.5,166.24v-30.6 M99.5,447.761v-122.4h61.2v122.4H99.5z M209.66,447.761h-42.84V319.24H93.38v128.521
		H50.54V236.009l159.12-36.721V447.761z M276.98,447.761v-55.08h61.2v55.08H276.98z M399.38,447.761H344.3v-61.2h-73.44v61.2h-55.08
		V191.944V7.12h183.6v122.4v36.72v6.12V447.761z M405.5,447.761v-275.4"/>
</g>
</svg>
