<?xml version="1.0" encoding="utf-8"?>
<!-- Generator: Adobe Illustrator 16.0.0, SVG Export Plug-In . SVG Version: 6.00 Build 0)  -->
<!DOCTYPE svg PUBLIC "-//W3C//DTD SVG 1.1//EN" "http://www.w3.org/Graphics/SVG/1.1/DTD/svg11.dtd">
<svg version="1.1" xmlns="http://www.w3.org/2000/svg" xmlns:xlink="http://www.w3.org/1999/xlink" x="0px" y="0px" width="31px"
	 height="31px" viewBox="0 0 31 31" enable-background="new 0 0 31 31" xml:space="preserve">
<g id="background" display="none">
	
		<rect x="-8.279" y="-9.375" display="inline" fill="#36E08F" stroke="#FFFFFF" stroke-width="4" stroke-linecap="round" width="54.654" height="47.5"/>
</g>
<g id="Layer_1">
	<g>
		<path fill="#FFFFFF" d="M28.604,31c-0.508,0-1.015-0.191-1.404-0.576L15.5,18.881L3.801,30.424
			c-0.786,0.776-2.052,0.768-2.829-0.02c-0.776-0.786-0.767-2.052,0.019-2.828l11.661-11.504L0.992,4.567
			C0.206,3.791,0.197,2.525,0.973,1.738C1.75,0.951,3.015,0.944,3.801,1.719L15.5,13.262L27.199,1.719
			c0.786-0.775,2.052-0.767,2.828,0.019c0.775,0.787,0.768,2.053-0.02,2.829l-11.66,11.505l11.66,11.504
			c0.787,0.776,0.795,2.042,0.02,2.828C29.636,30.801,29.12,31,28.604,31z"/>
	</g>
</g>
</svg>
