<svg id="Layer_1" data-name="Layer 1" xmlns="http://www.w3.org/2000/svg" viewBox="0 0 8.42 8.44"><defs><style>.cls-1{fill:#231f20;}</style></defs><title>facebook-socialico</title><path class="cls-1" d="M107.11,126.58a4.12,4.12,0,0,1-1.64-.33,4.2,4.2,0,0,1-2.24-2.24,4.26,4.26,0,0,1,0-3.29,4.31,4.31,0,0,1,.9-1.34,4.2,4.2,0,0,1,1.34-.91,4.26,4.26,0,0,1,3.29,0,4.2,4.2,0,0,1,1.34.91,4.32,4.32,0,0,1,.9,1.34,4.27,4.27,0,0,1,0,3.29,4.2,4.2,0,0,1-2.24,2.24A4.12,4.12,0,0,1,107.11,126.58ZM106,122.52h0.62v1.9h0.78v-1.9h0.78v-0.78h-0.78v-0.4a0.29,0.29,0,0,1,0-.17,0.13,0.13,0,0,1,.11-0.07h0.62v-0.77h-0.62a0.87,0.87,0,0,0-.66.3,1,1,0,0,0-.28.72v0.38H106v0.78Z" transform="translate(-102.9 -118.15)"/></svg>