<?xml version="1.0" encoding="UTF-8" standalone="no"?>
<svg width="38px" height="37px" viewBox="0 0 38 37" version="1.1" xmlns="http://www.w3.org/2000/svg" xmlns:xlink="http://www.w3.org/1999/xlink">
    <!-- Generator: Sketch 39.1 (31720) - http://www.bohemiancoding.com/sketch -->
    <title>facebook-socialico</title>
    <desc>Created with Sketch.</desc>
    <defs></defs>
    <g id="Page-1" stroke="none" stroke-width="1" fill="none" fill-rule="evenodd">
        <g id="ecocity-mobile" transform="translate(-165.000000, -507.000000)" fill="#FFFFFF">
            <g id="social" transform="translate(73.000000, 507.000000)">
                <g id="facebook-socialico" transform="translate(92.000000, 0.000000)">
                    <g id="Layer_1">
                        <path d="M19.2377944,36.7025139 C16.7844709,36.7169011 14.3542698,36.2285088 12.0974538,35.2675349 C7.69820282,33.4165675 4.19807859,29.9208206 2.34479335,25.5270716 C0.426636325,20.9507075 0.426636325,15.7971301 2.34479335,11.2207661 C3.27187663,9.04933753 4.60134833,7.07237745 6.26327298,5.39388179 C7.93249796,3.70927232 9.91406947,2.36526122 12.0974538,1.43681857 C16.6795484,-0.478939524 21.8395791,-0.478939524 26.4216737,1.43681857 C28.605058,2.36526122 30.5866295,3.70927232 32.2558545,5.39388179 C33.9169682,7.0730398 35.2463302,9.0498367 36.1743341,11.2207661 C38.0876227,15.7981056 38.0876227,20.9497321 36.1743341,25.5270716 C34.3210489,29.9208206 30.8209247,33.4165675 26.4216737,35.2675349 C24.1513883,36.2343594 21.7057637,36.7228726 19.2377944,36.7025139 L19.2377944,36.7025139 Z M14.4050029,19.0479241 L17.1043999,19.0479241 L17.1043999,27.3099243 L20.5004156,27.3099243 L20.5004156,19.0479241 L23.8964313,19.0479241 L23.8964313,15.6561556 L20.5004156,15.6561556 L20.5004156,13.9167872 C20.4264778,13.6759092 20.4264778,13.4184336 20.5004156,13.1775556 C20.5938894,12.9976905 20.7766114,12.8815583 20.9793409,12.8731661 L23.678738,12.8731661 L23.678738,9.52488186 L20.9793409,9.52488186 C19.8770686,9.5214283 18.8279657,9.99769685 18.1057892,10.8294082 C17.2959209,11.6678002 16.8567483,12.7956886 16.8867066,13.9602714 L16.8867066,15.6126714 L14.4050029,15.6126714 L14.4050029,19.0044399 L14.4050029,19.0479241 Z" id="Shape"></path>
                    </g>
                </g>
            </g>
        </g>
    </g>
</svg>