<?xml version="1.0" encoding="UTF-8" standalone="no"?>
<svg width="38px" height="37px" viewBox="0 0 38 37" version="1.1" xmlns="http://www.w3.org/2000/svg" xmlns:xlink="http://www.w3.org/1999/xlink">
    <!-- Generator: Sketch 39.1 (31720) - http://www.bohemiancoding.com/sketch -->
    <title>linkedin-socialico</title>
    <desc>Created with Sketch.</desc>
    <defs></defs>
    <g id="Page-1" stroke="none" stroke-width="1" fill="none" fill-rule="evenodd">
        <g id="ecocity-mobile" transform="translate(-260.000000, -507.000000)" fill="#FFFFFF">
            <g id="social" transform="translate(73.000000, 507.000000)">
                <g id="linkedin-socialico" transform="translate(187.000000, 0.000000)">
                    <g id="Layer_1">
                        <path d="M18.9018297,36.7025139 C16.4516565,36.7169011 14.0245759,36.2285088 11.7706578,35.2675349 C9.5895422,34.3400728 7.61033594,32.99594 5.94396851,31.3104717 C4.28417789,29.631976 2.95641332,27.655016 2.03052048,25.4835874 C0.114826505,20.9072233 0.114826505,15.7536459 2.03052048,11.1772819 C3.88142597,6.78353284 7.3770558,3.28778602 11.7706578,1.43681857 C16.3468687,-0.478939524 21.5002736,-0.478939524 26.0764845,1.43681857 C28.2473412,2.36366189 30.2240719,3.6913613 31.9031737,5.35039758 C33.5877268,7.01753496 34.9316929,8.99662823 35.8601045,11.1772819 C37.7757985,15.7536459 37.7757985,20.9072233 35.8601045,25.4835874 C33.9926814,29.8913935 30.4841431,33.4000492 26.0764845,35.2675349 C23.8091143,36.2343594 21.36663,36.7228726 18.9018297,36.7025139 L18.9018297,36.7025139 Z M13.7273818,7.95945026 C13.198328,7.95637028 12.6927345,8.17757484 12.3359336,8.56822921 C11.9632696,8.9517585 11.7596929,9.46854731 11.7706578,10.0032082 C11.6551732,10.7800888 12.0050157,11.5526632 12.6650522,11.9783434 C13.3250887,12.4040237 14.1731577,12.4040237 14.8331942,11.9783434 C15.4932307,11.5526632 15.8430731,10.7800888 15.7275886,10.0032082 C15.7755008,9.4240558 15.5691834,8.8526963 15.1623127,8.43777658 C14.7727177,8.08334343 14.2517106,7.90966857 13.7273818,7.95945026 L13.7273818,7.95945026 Z M15.3362438,13.1775556 L12.1185198,13.1775556 L12.1185198,24.3964821 L15.1623127,24.3964821 L15.1623127,13.1775556 L15.3362438,13.1775556 Z M16.901623,24.3964821 L20.1193469,24.3964821 L20.1193469,17.1346188 C20.3583055,16.8977964 20.6382241,16.7062667 20.9455193,16.5693241 C21.2195118,16.5300766 21.4976991,16.5300766 21.7716916,16.5693241 C22.0827532,16.4695002 22.4172507,16.4695002 22.7283123,16.5693241 C22.8916039,16.6621774 23.0268069,16.7973849 23.1196571,16.960682 C23.1716607,17.1455253 23.1716607,17.3411334 23.1196571,17.5259767 L23.1196571,24.3529979 L26.2938982,24.3529979 L26.2938982,17.5694609 C26.2783869,16.818563 26.0686572,16.0844844 25.6851397,15.4387346 C25.3011532,14.7691348 24.7458551,14.213818 24.0762777,13.8298188 C23.4418483,13.5073327 22.7439561,13.3291415 22.0325882,13.3080082 C21.2970048,13.2701538 20.5638608,13.41978 19.9019331,13.7428503 L19.9019331,13.2210398 L16.901623,13.2210398 L16.901623,24.4399663 L16.901623,24.3964821 Z" id="Shape"></path>
                    </g>
                </g>
            </g>
        </g>
    </g>
</svg>