<svg id="Layer_1" data-name="Layer 1" xmlns="http://www.w3.org/2000/svg" viewBox="0 0 8.44 8.44"><defs><style>.cls-1{fill:#231f20;}</style></defs><title>linkedin-socialico</title><path class="cls-1" d="M142.86,107.5a4.12,4.12,0,0,1-1.64-.33,4.19,4.19,0,0,1-1.34-.91,4.31,4.31,0,0,1-.9-1.34,4.26,4.26,0,0,1,0-3.29,4.2,4.2,0,0,1,2.24-2.24,4.26,4.26,0,0,1,3.29,0,4.32,4.32,0,0,1,1.34.9,4.2,4.2,0,0,1,.91,1.34,4.26,4.26,0,0,1,0,3.29,4.24,4.24,0,0,1-2.25,2.25A4.12,4.12,0,0,1,142.86,107.5Zm-1.19-6.61a0.43,0.43,0,0,0-.32.14,0.46,0.46,0,0,0-.13.33,0.46,0.46,0,1,0,.91,0A0.46,0.46,0,0,0,142,101,0.43,0.43,0,0,0,141.67,100.89Zm0.37,1.2H141.3v2.58H142v-2.58Zm0.36,2.58h0.74V103a0.64,0.64,0,0,1,.19-0.13,0.67,0.67,0,0,1,.19,0,0.36,0.36,0,0,1,.22,0,0.24,0.24,0,0,1,.09.09,0.24,0.24,0,0,1,0,.13v1.57h0.73V103.1a1,1,0,0,0-.14-0.49,1,1,0,0,0-.37-0.37,1.11,1.11,0,0,0-.47-0.12,1,1,0,0,0-.49.1v-0.12H142.4v2.58Z" transform="translate(-138.65 -99.06)"/></svg>