<?xml version="1.0" encoding="utf-8"?>
<!-- Generator: Adobe Illustrator 16.0.0, SVG Export Plug-In . SVG Version: 6.00 Build 0)  -->
<!DOCTYPE svg PUBLIC "-//W3C//DTD SVG 1.1//EN" "http://www.w3.org/Graphics/SVG/1.1/DTD/svg11.dtd">
<svg version="1.1" id="Layer_1" xmlns="http://www.w3.org/2000/svg" xmlns:xlink="http://www.w3.org/1999/xlink" x="0px" y="0px"
	 width="400px" height="136.1px" viewBox="0 0 400 136.1" enable-background="new 0 0 400 136.1" xml:space="preserve">
<g>
	<g>
		<path fill="#FFFFFF" d="M0.229,79.355h23.99c10.844,0,17.303,4.844,17.303,14.532c0,5.075-2.309,9.229-7.844,11.767l0,0
			c6.458,1.614,9.688,7.149,9.688,13.381c0,10.607-8.303,16.147-17.531,16.147H0.459V79.355H0.229z M22.837,102.424
			c5.306,0,8.304-2.771,8.304-7.154c0-4.845-3.459-6.919-8.765-6.919H10.609v14.073H22.837L22.837,102.424z M23.759,126.411
			c5.537,0,8.996-2.766,8.996-7.842s-3.229-7.382-8.996-7.382h-13.15v15.224H23.759z"/>
		<path fill="#FFFFFF" d="M56.284,116.031V79.354h10.382v35.296c0,6.919,3.229,11.994,11.534,11.994
			c7.612,0,11.532-3.92,11.532-11.994V79.355h10.382v35.755c0,13.381-8.765,20.99-21.914,20.99
			C65.051,136.1,56.284,129.408,56.284,116.031z"/>
		<path fill="#FFFFFF" d="M115.802,79.355h10.38v55.827h-10.38V79.355z"/>
		<path fill="#FFFFFF" d="M142.099,79.355h10.382v46.825h27.218v9.233h-37.6V79.355z"/>
		<path fill="#FFFFFF" d="M192.156,79.355h21.914c12.229,0,22.146,7.841,22.146,20.299v14.996c0,13.146-10.843,20.532-21.914,20.532
			h-21.914V79.355H192.156L192.156,79.355z M213.609,126.18c5.305,0,11.994-2.765,11.994-10.839V99.195
			c0-6.689-5.768-10.616-12.453-10.616h-10.615v37.603L213.609,126.18L213.609,126.18z"/>
		<path fill="#FFFFFF" d="M250.521,79.355h38.752v9.229H260.9v13.607h25.375v9.226h-25.147v14.764h28.608v9.233H250.52v-56.06
			H250.521z"/>
		<path fill="#FFFFFF" d="M304.27,79.355h22.143c10.615,0,18.921,6.228,18.921,17.529c0,6.689-3.461,13.613-11.075,16.15
			l13.841,22.146h-11.303l-13.149-20.991h-8.996v20.991H304.27V79.355L304.27,79.355z M325.26,105.654
			c5.995,0,10.152-2.998,10.152-8.77c0-6.688-4.385-8.761-10.152-8.761h-10.384v17.298h10.384V105.654z"/>
		<path fill="#FFFFFF" d="M356.171,122.264l9.456-3.693c2.079,5.309,7.155,8.537,13.382,8.537c5.54,0,11.07-2.311,11.07-7.386
			c0-4.148-3.461-5.995-7.609-7.378l-9.456-2.312c-7.387-1.847-13.381-5.304-13.381-15.224c0-10.611,9.225-16.606,20.067-16.606
			c9.229,0,16.15,2.998,19.607,11.535l-8.532,3.688c-2.543-4.616-6.69-6.463-11.999-6.463c-4.611,0-8.992,2.078-8.992,7.153
			c0,3.922,3.688,5.769,8.073,6.924l9.457,2.302c6.689,1.614,12.686,5.54,12.686,15.46c0,10.379-9.225,17.07-21.455,17.07
			C368.397,136.1,359.169,131.72,356.171,122.264z"/>
	</g>
	<g>
		<path fill="#01D2A3" d="M0.229,1.154h38.755v9.228H10.609v13.61h25.146v9.228H10.609v14.764h28.604v9.228H0V1.155L0.229,1.154
			L0.229,1.154z"/>
		<path fill="#01D2A3" d="M50.519,38.524V20.53c0-13.146,10.15-20.528,22.376-20.528c10.611,0,21.223,5.997,21.223,18.452v1.617
			h-9.92v-0.692c0-7.383-6.459-10.15-11.534-10.15c-5.306,0-11.994,2.77-11.994,10.844v17.991c0,6.69,5.767,10.611,12.455,10.611
			c5.076,0,11.073-2.769,11.073-10.149v-0.69h9.92v1.613c0,12.456-10.382,18.453-20.993,18.453
			C61.13,57.9,50.519,50.982,50.519,38.524z"/>
		<path fill="#01D2A3" d="M107.035,38.524V20.53c0-13.146,11.303-20.528,22.376-20.528c12.226,0,22.837,7.842,22.837,20.3v16.841
			c0,13.147-11.303,20.526-22.376,20.526C117.646,57.9,107.035,50.982,107.035,38.524z M141.869,37.832V19.839
			c0-6.691-5.768-10.612-12.458-10.612c-5.306,0-11.994,2.769-11.994,10.844v17.991c0,6.69,5.765,10.611,12.455,10.611
			C135.178,48.673,141.869,45.905,141.869,37.832z"/>
		<path fill="#FFFFFF" d="M165.397,38.524V20.53c0-13.146,10.152-20.528,22.374-20.528c10.615,0,21.223,5.997,21.223,18.452v1.617
			h-9.92v-0.692c0-7.383-6.459-10.15-11.53-10.15c-5.304,0-11.994,2.77-11.994,10.844v17.991c0,6.69,5.763,10.611,12.453,10.611
			c5.076,0,11.071-2.769,11.071-10.149v-0.69h9.92v1.613c0,12.456-10.38,18.453-20.991,18.453
			C176.009,57.9,165.397,50.982,165.397,38.524z"/>
		<path fill="#FFFFFF" d="M223.299,1.154h10.379v55.827h-10.379V1.154z"/>
		<path fill="#FFFFFF" d="M262.283,9.918h-16.147V0.921h42.446v8.997h-16.15v47.063h-10.375V9.918H262.283z"/>
		<path fill="#FFFFFF" d="M314.189,34.603L295.5,1.154h11.767l12.458,23.529l12.458-23.529h11.071l-18.917,33.68v22.376H314.19
			L314.189,34.603L314.189,34.603z"/>
		<path fill="#01D2A3" d="M127.104,19.377c-1.152,1.385-2.308,2.999-3.461,4.844c-0.921,1.614-1.845,3.461-2.306,5.538
			c-0.691,2.997,0,5.997,1.844,8.303c0.924,1.155,2.076,2.309,3.462,3c0.691,0.461,1.385,0.691,2.306,0.923c0,0,0,0,0-0.23
			c0-1.846,0-3.691,0-5.536c0,0,0-0.231-0.229-0.231c-1.153-1.152-2.307-2.307-3.229-3.459l-0.232-0.229
			c-0.229-0.232,0-0.694,0.232-0.694c0.229,0,0.462,0,0.462,0.232c0.921,0.921,1.844,1.844,2.768,2.768c0,0,0,0.229,0.229,0.229
			c0,0,0,0,0-0.229c0-1.615,0-3.461,0-5.076c0,0,0-0.229-0.229-0.229c-0.462-0.462-0.924-1.153-1.615-1.615l-0.231-0.231
			c0-0.229,0-0.462,0.231-0.462c0.23,0,0.462,0,0.691,0c0.232,0.462,0.691,0.693,0.924,1.155c0-0.23,0-0.23,0-0.23
			c0-1.384,0-2.769,0-4.153c0-0.229,0-0.459,0.229-0.459c0.231,0,0.231-0.232,0.462,0c0.231,0,0.231,0.229,0.231,0.459
			c0,1.386,0,2.771,0,4.153v0.23c0.46-0.462,0.691-0.693,1.153-1.155c0.229-0.229,0.462-0.229,0.691,0
			c0.231,0.232,0.231,0.462,0,0.693c-0.462,0.462-1.153,1.153-1.615,1.615c0,0-0.229,0.229-0.229,0.462c0,1.614,0,3.229,0,4.844
			v0.229c0.921-0.922,1.615-1.614,2.536-2.307c0.231-0.229,0.462-0.462,0.693-0.69c0.229-0.232,0.462-0.232,0.691,0
			c0.229,0.229,0.229,0.462,0,0.69c0,0,0,0-0.229,0.229c-1.155,1.154-2.309,2.309-3.462,3.229c-0.229,0.231-0.229,0.231-0.229,0.462
			c0,1.848,0,3.461,0,5.307v0.23c0,0,0,0,0.229,0h0.23c2.308-0.923,4.385-2.309,5.999-4.385c1.614-2.306,2.306-4.844,1.845-7.611
			c-0.23-2.076-1.153-4.152-2.077-5.997c-1.614-3-3.69-5.538-5.997-8.072c0,0,0,0-0.229,0"/>
	</g>
</g>
</svg>
