<?xml version="1.0" encoding="utf-8"?>
<!-- Generator: Adobe Illustrator 16.0.0, SVG Export Plug-In . SVG Version: 6.00 Build 0)  -->
<!DOCTYPE svg PUBLIC "-//W3C//DTD SVG 1.1//EN" "http://www.w3.org/Graphics/SVG/1.1/DTD/svg11.dtd">
<svg version="1.1" id="Layer_1" xmlns="http://www.w3.org/2000/svg" xmlns:xlink="http://www.w3.org/1999/xlink" x="0px" y="0px"
	 width="548.965px" height="298.979px" viewBox="0 0 548.965 298.979" enable-background="new 0 0 548.965 298.979"
	 xml:space="preserve">
<g>
	<path d="M530.605,185.147c-7.345-4.896-40.393-17.748-75.277-26.316c9.181-15.912,15.301-36.107,15.301-57.527
		c0-80.172-41.616-97.309-77.111-97.309c-49.572,0-77.113,34.272-77.113,97.309c0,21.42,5.508,41.615,15.301,57.527
		c-21.42,5.508-41.616,12.24-56.304,17.748c-13.464-5.508-34.272-12.24-56.304-17.748c9.18-15.912,15.3-36.107,15.3-57.527
		c0-80.172-41.616-97.309-77.112-97.309c-49.572,0-77.112,34.272-77.112,97.309c0,21.42,5.508,41.615,15.3,57.527
		c-34.272,9.18-67.932,21.42-75.276,26.316C9.181,192.491,2.449,228.599,0,292.859c0,3.672,2.448,6.12,6.12,6.12l0,0
		c3.06,0,6.12-2.448,6.12-6.12c2.448-71.604,11.016-95.472,14.688-97.92c4.896-3.673,39.168-16.524,75.276-25.704
		c14.076,17.748,33.048,28.764,54.468,28.764c21.42,0,41.004-11.016,54.468-28.764c17.136,4.284,33.66,9.792,47.124,14.076
		c-0.612,0.611-1.836,1.224-2.448,1.224c-11.016,7.344-17.748,44.063-20.196,107.712c0,3.672,2.448,6.12,6.12,6.12l0,0
		c3.06,0,6.12-2.448,6.12-6.12c2.448-71.604,11.016-95.472,14.688-97.92c4.896-3.061,38.556-16.523,75.276-25.704
		c14.076,17.748,33.049,28.765,54.469,28.765s41.004-11.017,54.467-28.765c36.721,9.181,70.381,22.644,75.277,25.704
		c4.283,2.448,12.24,26.928,14.688,97.92c0,3.061,3.061,6.12,6.119,6.12l0,0c3.672,0,6.121-3.06,6.121-6.12
		C548.354,228.599,541.621,192.491,530.605,185.147z M157.285,185.759c-35.496,0-64.872-37.943-64.872-85.067
		c0-38.556,11.016-85.068,64.872-85.068c43.452,0,64.872,27.54,64.872,85.068C222.157,147.815,192.781,185.759,157.285,185.759z
		 M393.518,185.759c-35.496,0-64.873-37.943-64.873-85.067c0-38.556,11.016-85.068,64.873-85.068
		c43.451,0,64.871,27.54,64.871,85.068C458.389,147.815,429.014,185.759,393.518,185.759z"/>
</g>
</svg>
