<?xml version="1.0" encoding="UTF-8" standalone="no"?>
<svg width="52px" height="40px" viewBox="0 0 52 40" version="1.1" xmlns="http://www.w3.org/2000/svg" xmlns:xlink="http://www.w3.org/1999/xlink">
    <!-- Generator: Sketch 39.1 (31720) - http://www.bohemiancoding.com/sketch -->
    <title>Page 1</title>
    <desc>Created with Sketch.</desc>
    <defs></defs>
    <g id="Page-1" stroke="none" stroke-width="1" fill="none" fill-rule="evenodd" opacity="0.5">
        <g id="Article" transform="translate(-364.000000, -825.000000)" fill="#BDF6C9">
            <path d="M415.448276,831.89755 C406.344828,834.518619 404.137931,836.725834 402.62069,844.864943 C404.689655,844.037237 406.482759,843.623384 407.724138,843.623384 C412.137931,843.623384 416,847.899865 416,852.866101 C416,859.211846 410.896552,864.178082 404.413793,864.178082 C397.103448,864.178082 391.862069,858.246189 391.862069,849.831179 C391.862069,842.933629 394.758621,836.449932 399.724138,831.89755 C403.724138,828.310824 407.448276,826.655412 415.448276,825 L415.448276,831.89755 Z M387.586207,831.89755 C378.482759,834.518619 376.275862,836.725834 374.758621,844.864943 C376.827586,844.037237 378.62069,843.623384 379.862069,843.623384 C384.275862,843.623384 388.137931,847.899865 388.137931,852.866101 C388.137931,859.211846 383.034483,864.178082 376.551724,864.178082 C369.241379,864.178082 364,858.246189 364,849.693228 C364,842.933629 366.896552,836.449932 371.862069,831.89755 C375.862069,828.310824 379.586207,826.655412 387.586207,825 L387.586207,831.89755 Z" id="Page-1" transform="translate(390.000000, 844.589041) scale(-1, 1) translate(-390.000000, -844.589041) "></path>
        </g>
    </g>
</svg>