<?xml version="1.0" encoding="UTF-8" standalone="no"?>
<svg width="52px" height="40px" viewBox="0 0 52 40" version="1.1" xmlns="http://www.w3.org/2000/svg" xmlns:xlink="http://www.w3.org/1999/xlink">
    <!-- Generator: Sketch 39.1 (31720) - http://www.bohemiancoding.com/sketch -->
    <title>Page 1</title>
    <desc>Created with Sketch.</desc>
    <defs></defs>
    <g id="Page-1" stroke="none" stroke-width="1" fill="none" fill-rule="evenodd" opacity="0.5">
        <g id="Article" transform="translate(-99.000000, -773.000000)" fill="#BDF6C9">
            <path d="M150.448276,779.89755 C141.344828,782.518619 139.137931,784.725834 137.62069,792.864943 C139.689655,792.037237 141.482759,791.623384 142.724138,791.623384 C147.137931,791.623384 151,795.899865 151,800.866101 C151,807.211846 145.896552,812.178082 139.413793,812.178082 C132.103448,812.178082 126.862069,806.246189 126.862069,797.831179 C126.862069,790.933629 129.758621,784.449932 134.724138,779.89755 C138.724138,776.310824 142.448276,774.655412 150.448276,773 L150.448276,779.89755 Z M122.586207,779.89755 C113.482759,782.518619 111.275862,784.725834 109.758621,792.864943 C111.827586,792.037237 113.62069,791.623384 114.862069,791.623384 C119.275862,791.623384 123.137931,795.899865 123.137931,800.866101 C123.137931,807.211846 118.034483,812.178082 111.551724,812.178082 C104.241379,812.178082 99,806.246189 99,797.693228 C99,790.933629 101.896552,784.449932 106.862069,779.89755 C110.862069,776.310824 114.586207,774.655412 122.586207,773 L122.586207,779.89755 Z" id="Page-1"></path>
        </g>
    </g>
</svg>