<?xml version="1.0" encoding="utf-8"?>
<!-- Generator: Adobe Illustrator 16.0.0, SVG Export Plug-In . SVG Version: 6.00 Build 0)  -->
<!DOCTYPE svg PUBLIC "-//W3C//DTD SVG 1.1//EN" "http://www.w3.org/Graphics/SVG/1.1/DTD/svg11.dtd">
<svg version="1.1" id="Layer_1" xmlns="http://www.w3.org/2000/svg" xmlns:xlink="http://www.w3.org/1999/xlink" x="0px" y="0px"
	 width="365.141px" height="548.506px" viewBox="0 0 365.141 548.506" enable-background="new 0 0 365.141 548.506"
	 xml:space="preserve">
<g>
	<rect x="176.95" y="95.625" width="12.24" height="452.881"/>
	<path d="M183.07,0C82.518,0,1,81.512,1,182.07c0,100.552,81.518,182.07,182.07,182.07c100.558,0,182.071-81.519,182.071-182.07
		C365.141,81.512,283.627,0,183.07,0z M183.07,350.566c-93.061,0-168.502-75.441-168.502-168.496
		C14.574,89.009,90.015,13.574,183.07,13.574c93.066,0,168.497,75.441,168.497,168.496S276.136,350.566,183.07,350.566z"/>
	
		<rect x="110.238" y="152.938" transform="matrix(-0.7071 0.7071 -0.7071 -0.7071 373.1352 333.3876)" width="14.565" height="182.069"/>
	
		<rect x="219.481" y="123.808" transform="matrix(-0.7071 -0.7071 0.7071 -0.7071 255.7992 477.3738)" width="14.566" height="123.807"/>
</g>
</svg>
