<?xml version="1.0" encoding="utf-8"?>
<!-- Generator: Adobe Illustrator 16.0.0, SVG Export Plug-In . SVG Version: 6.00 Build 0)  -->
<!DOCTYPE svg PUBLIC "-//W3C//DTD SVG 1.1//EN" "http://www.w3.org/Graphics/SVG/1.1/DTD/svg11.dtd">
<svg version="1.1" id="Layer_1" xmlns="http://www.w3.org/2000/svg" xmlns:xlink="http://www.w3.org/1999/xlink" x="0px" y="0px"
	 width="365.141px" height="548.506px" viewBox="0 0 365.141 548.506" enable-background="new 0 0 365.141 548.506"
	 xml:space="preserve">
<path d="M365.141,182.07C365.141,81.512,283.627,0,183.07,0C82.518,0,1,81.512,1,182.07c0,98.503,78.233,178.727,175.95,181.957
	v184.479h12.239V364.026C286.913,360.797,365.141,280.572,365.141,182.07z M189.189,350.443v-116.85l86.504-86.503l-10.301-10.3
	l-76.203,76.204V95.625H176.95v197.477L58.302,174.454l-10.299,10.299l128.741,128.741l0.206-0.205v37.155
	C86.726,347.221,14.568,273.075,14.568,182.07C14.574,89.009,90.015,13.574,183.07,13.574c93.067,0,168.498,75.441,168.498,168.496
	C351.567,273.076,279.419,347.221,189.189,350.443z"/>
</svg>
