<svg id="Layer_1" data-name="Layer 1" xmlns="http://www.w3.org/2000/svg" viewBox="0 0 8.44 8.44"><defs><style>.cls-1{fill:#231f20;}</style></defs><title>twitter-socialico</title><path class="cls-1" d="M93.43,99.6a4.12,4.12,0,0,1-1.64-.33,4.31,4.31,0,0,1-1.34-.9A4.19,4.19,0,0,1,89.54,97a4.26,4.26,0,0,1,0-3.29,4.24,4.24,0,0,1,2.25-2.25,4.26,4.26,0,0,1,3.29,0,4.2,4.2,0,0,1,1.34.91,4.32,4.32,0,0,1,.9,1.34,4.26,4.26,0,0,1,0,3.29,4.2,4.2,0,0,1-2.24,2.24A4.12,4.12,0,0,1,93.43,99.6Zm-1.48-4a1.65,1.65,0,0,0,.11.61,1.62,1.62,0,0,0,.31.5,1.48,1.48,0,0,0,.47.34,1.33,1.33,0,0,0,.57.13h1a0.45,0.45,0,0,0,.46-0.46,0.45,0.45,0,0,0-.13-0.33,0.43,0.43,0,0,0-.32-0.13h-1a0.52,0.52,0,0,1-.4-0.2,0.69,0.69,0,0,1-.17-0.47V95.39h1.57a0.45,0.45,0,0,0,.46-0.46,0.46,0.46,0,0,0-.13-0.34,0.44,0.44,0,0,0-.32-0.13H92.87V94a0.45,0.45,0,0,0-.13-0.32,0.44,0.44,0,0,0-.33-0.13A0.45,0.45,0,0,0,92,94v1.63Z" transform="translate(-89.21 -91.17)"/></svg>