<?xml version="1.0" encoding="UTF-8" standalone="no"?>
<svg width="35px" height="36px" viewBox="0 0 35 36" version="1.1" xmlns="http://www.w3.org/2000/svg" xmlns:xlink="http://www.w3.org/1999/xlink">
    <!-- Generator: Sketch 39.1 (31720) - http://www.bohemiancoding.com/sketch -->
    <title>twitter-socialico</title>
    <desc>Created with Sketch.</desc>
    <defs></defs>
    <g id="Page-1" stroke="none" stroke-width="1" fill="none" fill-rule="evenodd">
        <g id="ecocity-mobile" transform="translate(-73.000000, -509.000000)" fill="#FFFFFF">
            <g id="social" transform="translate(73.000000, 507.000000)">
                <g id="twitter-socialico" transform="translate(0.000000, 2.000000)">
                    <g id="Layer_1">
                        <path d="M17.4608631,35.0831553 C15.1296098,35.0968438 12.8203284,34.6321713 10.675805,33.7178692 C8.60983663,32.8369149 6.72889195,31.5735939 5.13191611,29.9943618 C3.51483085,28.3723011 2.23522376,26.4458597 1.36703633,24.326356 C-0.455678777,19.972253 -0.455678777,15.0689704 1.36703633,10.7148675 C3.14382346,6.52113614 6.48207364,3.18288596 10.675805,1.40609883 C15.0299079,-0.416616277 19.9331905,-0.416616277 24.2872935,1.40609883 C26.3620389,2.28944963 28.2450132,3.56818589 29.8311824,5.17097861 C31.4096439,6.76858463 32.6728607,8.64937406 33.5546898,10.7148675 C35.3774049,15.0689704 35.3774049,19.972253 33.5546898,24.326356 C31.7936187,28.506713 28.4676505,31.8326812 24.2872935,33.5937523 C22.1390723,34.5562638 19.8147729,35.0633837 17.4608631,35.0831553 L17.4608631,35.0831553 Z M11.3377619,18.5342332 C11.32867,19.3966659 11.4830927,20.2530099 11.7928573,21.0579438 C12.0905358,21.8199795 12.5252157,22.5210761 13.0753987,23.1265591 C13.6244293,23.7191226 14.2852872,24.19719 15.0198971,24.5332175 C15.7563499,24.8851866 16.561883,25.0689047 17.3781185,25.0710574 L21.515349,25.0710574 C22.0235054,25.0824811 22.5142387,24.8856443 22.8736503,24.5262327 C23.2330619,24.1668211 23.4298986,23.6760878 23.418475,23.1679314 C23.4336683,22.6583955 23.2392675,22.1649165 22.8806351,21.8026453 C22.533893,21.4462156 22.0537993,21.2511776 21.5567213,21.2648054 L17.4194908,21.2648054 C16.7713705,21.2523986 16.1633961,20.9484114 15.7645986,20.4373593 C15.2953959,19.8998607 15.0444774,19.2061448 15.0612694,18.4928609 L15.0612694,17.6654148 L21.5567213,17.6654148 C22.0648777,17.6768384 22.555611,17.4800016 22.9150226,17.12059 C23.2744342,16.7611784 23.471271,16.2704451 23.4598473,15.7622888 C23.4816033,15.2393966 23.2870714,14.7306208 22.9220074,14.3556304 C22.5724581,14.0033929 22.0942598,13.8091248 21.5980936,13.8177904 L15.144014,13.8177904 L15.144014,11.9146644 C15.1479759,11.4193861 14.9544212,10.9429439 14.606174,10.5907506 C14.2466933,10.2278614 13.7512864,10.0327011 13.2408879,10.0529106 C12.2777957,10.1388514 11.5407966,10.9477529 11.5446234,11.9146644 L11.5446234,18.6583501 L11.3377619,18.5342332 Z" id="Shape"></path>
                    </g>
                </g>
            </g>
        </g>
    </g>
</svg>