<?xml version="1.0" encoding="utf-8"?>
<!-- Generator: Adobe Illustrator 16.0.0, SVG Export Plug-In . SVG Version: 6.00 Build 0)  -->
<!DOCTYPE svg PUBLIC "-//W3C//DTD SVG 1.1//EN" "http://www.w3.org/Graphics/SVG/1.1/DTD/svg11.dtd">
<svg version="1.1" id="Layer_1" xmlns="http://www.w3.org/2000/svg" xmlns:xlink="http://www.w3.org/1999/xlink" x="0px" y="0px"
	 width="400px" height="29.299px" viewBox="0 185.054 400 29.299" enable-background="new 0 185.054 400 29.299"
	 xml:space="preserve">
<g>
	<path fill="#01D2A3" d="M0.118,185.646h19.929v4.746H5.457v6.998h12.93v4.745H5.457v7.594h14.708v4.744H0v-28.827H0.118z"/>
	<path fill="#01D2A3" d="M26.097,204.982v-9.253c0-6.762,5.219-10.556,11.506-10.556c5.457,0,10.914,3.083,10.914,9.489v0.83h-5.1
		v-0.355c0-3.796-3.322-5.221-5.932-5.221c-2.729,0-6.169,1.425-6.169,5.576v9.253c0,3.438,2.966,5.457,6.406,5.457
		c2.609,0,5.694-1.426,5.694-5.221v-0.355h5.1v0.83c0,6.406-5.337,9.488-10.794,9.488C31.435,214.828,26.097,211.389,26.097,204.982
		z"/>
	<path fill="#01D2A3" d="M55.041,204.982v-9.253c0-6.762,5.812-10.556,11.506-10.556c6.287,0,11.744,4.032,11.744,10.437v8.662
		c0,6.762-5.812,10.557-11.506,10.557C60.498,214.828,55.041,211.389,55.041,204.982z M72.954,204.51v-9.253
		c0-3.44-2.966-5.459-6.406-5.459c-2.729,0-6.168,1.425-6.168,5.576v9.253c0,3.439,2.966,5.457,6.405,5.457
		C69.513,210.084,72.954,208.66,72.954,204.51z"/>
	<path d="M85.053,204.982v-9.253c0-6.762,5.219-10.556,11.506-10.556c5.457,0,10.914,3.083,10.914,9.489v0.83h-5.102v-0.355
		c0-3.796-3.321-5.221-5.93-5.221c-2.729,0-6.169,1.425-6.169,5.576v9.253c0,3.438,2.966,5.457,6.406,5.457
		c2.609,0,5.693-1.426,5.693-5.221v-0.355h5.102v0.83c0,6.406-5.338,9.488-10.794,9.488
		C90.51,214.828,85.053,211.389,85.053,204.982z"/>
	<path d="M114.828,185.646h5.339v28.708h-5.339V185.646z"/>
	<path d="M134.875,190.275h-8.303v-4.629h21.827v4.629h-8.303v24.198h-5.339v-24.198H134.875z"/>
	<path d="M161.565,202.85l-9.608-17.204h6.05l6.406,12.102l6.405-12.102h5.694l-9.728,17.319v11.508h-5.219V202.85L161.565,202.85z"
		/>
	<path d="M194.307,185.646h12.335c5.576,0,8.897,2.491,8.897,7.473c0,2.61-1.186,4.746-4.035,6.051l0,0
		c3.321,0.83,4.982,3.68,4.982,6.881c0,5.455-4.269,8.303-9.015,8.303h-13.049v-28.708H194.307z M206.051,197.39
		c2.728,0,4.271-1.423,4.271-3.677c0-2.491-1.779-3.558-4.509-3.558h-6.051v7.234H206.051z M206.404,209.844
		c2.849,0,4.629-1.422,4.629-4.031c0-2.611-1.661-3.795-4.629-3.795h-6.76v7.826H206.404z"/>
	<path d="M223.249,204.51v-18.864h5.34v18.151c0,3.557,1.66,6.168,5.932,6.168c3.913,0,5.932-2.018,5.932-6.168v-18.151h5.337
		v18.387c0,6.881-4.507,10.795-11.269,10.795S223.249,211.389,223.249,204.51z"/>
	<path d="M253.737,185.646h5.337v28.708h-5.337V185.646z"/>
	<path d="M267.38,185.646h5.335v24.083h13.999v4.744H267.38V185.646z"/>
	<path d="M293.12,185.646h11.269c6.287,0,11.389,4.034,11.389,10.441v7.709c0,6.762-5.576,10.557-11.27,10.557h-11.269v-28.708
		H293.12z M304.152,209.607c2.728,0,6.168-1.424,6.168-5.574v-8.304c0-3.44-2.966-5.454-6.406-5.454h-5.457v19.333H304.152
		L304.152,209.607z"/>
	<path d="M323.131,185.646h19.93v4.746h-14.59v6.998h12.93v4.745h-12.93v7.594h14.707v4.744h-20.166v-28.827H323.131z"/>
	<path d="M350.771,185.646h11.391c5.454,0,9.725,3.204,9.725,9.017c0,3.438-1.779,6.998-5.692,8.302l7.115,11.389h-5.813
		l-6.762-10.793h-4.625v10.793h-5.339V185.646L350.771,185.646z M361.447,199.05c3.085,0,5.219-1.541,5.219-4.507
		c0-3.438-2.253-4.507-5.219-4.507h-5.338v8.895h5.338V199.05z"/>
	<path d="M377.462,207.711l4.862-1.898c1.067,2.729,3.678,4.391,6.882,4.391c2.847,0,5.692-1.189,5.692-3.797
		c0-2.135-1.777-3.084-3.915-3.797l-4.862-1.186c-3.797-0.949-6.882-2.729-6.882-7.828c0-5.459,4.748-8.542,10.322-8.542
		c4.743,0,8.303,1.541,10.083,5.932l-4.391,1.896c-1.303-2.371-3.44-3.321-6.167-3.321c-2.372,0-4.627,1.066-4.627,3.677
		c0,2.019,1.899,2.966,4.151,3.561l4.863,1.186c3.44,0.83,6.525,2.846,6.525,7.948c0,5.34-4.746,8.777-11.03,8.777
		C383.749,214.828,378.887,212.574,377.462,207.711z"/>
	<path fill="#01D2A3" d="M65.361,195.137c-0.593,0.711-1.186,1.542-1.78,2.491c-0.474,0.83-0.948,1.78-1.186,2.847
		c-0.356,1.542,0,3.085,0.949,4.271c0.474,0.594,1.067,1.186,1.779,1.541c0.355,0.236,0.712,0.355,1.186,0.475c0,0,0,0,0-0.119
		c0-0.949,0-1.896,0-2.846c0,0,0-0.117-0.118-0.117c-0.593-0.594-1.186-1.189-1.661-1.781l-0.119-0.119
		c-0.118-0.119,0-0.355,0.119-0.355c0.118,0,0.237,0,0.237,0.117c0.474,0.477,0.949,0.949,1.423,1.424c0,0,0,0.121,0.118,0.121
		c0,0,0,0,0-0.121c0-0.83,0-1.777,0-2.607c0,0,0-0.119-0.118-0.119c-0.237-0.239-0.475-0.595-0.831-0.83l-0.119-0.12
		c0-0.119,0-0.238,0.119-0.238c0.118,0,0.238,0,0.356,0c0.119,0.238,0.355,0.358,0.475,0.594c0-0.119,0-0.119,0-0.119
		c0-0.711,0-1.424,0-2.135c0-0.12,0-0.236,0.118-0.236c0.119,0,0.119-0.119,0.237,0c0.119,0,0.119,0.116,0.119,0.236
		c0,0.711,0,1.424,0,2.135v0.119c0.238-0.235,0.355-0.355,0.593-0.594c0.118-0.119,0.237-0.119,0.355,0
		c0.119,0.119,0.119,0.238,0,0.358c-0.237,0.235-0.593,0.591-0.831,0.83c0,0-0.118,0.119-0.118,0.236c0,0.83,0,1.66,0,2.49v0.121
		c0.474-0.477,0.831-0.832,1.304-1.188c0.119-0.119,0.237-0.238,0.356-0.357c0.118-0.117,0.238-0.117,0.355,0
		c0.12,0.119,0.12,0.238,0,0.357c0,0,0,0-0.118,0.119c-0.594,0.592-1.187,1.184-1.78,1.662c-0.118,0.117-0.118,0.117-0.118,0.236
		c0,0.947,0,1.777,0,2.727v0.119c0,0,0,0,0.118,0h0.12c1.186-0.475,2.253-1.186,3.083-2.252c0.831-1.188,1.186-2.492,0.949-3.916
		c-0.118-1.066-0.593-2.135-1.068-3.084c-0.83-1.542-1.898-2.847-3.084-4.152c0,0,0,0-0.118,0"/>
</g>
</svg>
