<?xml version="1.0" encoding="utf-8"?>
<!-- Generator: Adobe Illustrator 16.0.0, SVG Export Plug-In . SVG Version: 6.00 Build 0)  -->
<!DOCTYPE svg PUBLIC "-//W3C//DTD SVG 1.1//EN" "http://www.w3.org/Graphics/SVG/1.1/DTD/svg11.dtd">
<svg version="1.1" id="Layer_1" xmlns="http://www.w3.org/2000/svg" xmlns:xlink="http://www.w3.org/1999/xlink" x="0px" y="0px"
	 width="400px" height="136.1px" viewBox="0 131.95 400 136.1" enable-background="new 0 131.95 400 136.1" xml:space="preserve">
<g>
	<g>
		<path fill="#FFFFFF" d="M0.229,211.305h23.99c10.844,0,17.303,4.844,17.303,14.532c0,5.075-2.309,9.229-7.844,11.767l0,0
			c6.458,1.614,9.688,7.149,9.688,13.381c0,10.607-8.303,16.147-17.531,16.147H0.459v-55.827H0.229z M22.837,234.374
			c5.306,0,8.304-2.771,8.304-7.154c0-4.845-3.459-6.919-8.765-6.919H10.609v14.073H22.837z M23.759,258.362
			c5.537,0,8.996-2.766,8.996-7.842s-3.229-7.382-8.996-7.382H10.609v15.224H23.759z"/>
		<path fill="#FFFFFF" d="M56.284,247.982v-36.678h10.382V246.6c0,6.919,3.229,11.994,11.534,11.994
			c7.612,0,11.532-3.92,11.532-11.994v-35.295h10.382v35.755c0,13.381-8.765,20.99-21.914,20.99S56.284,261.359,56.284,247.982z"/>
		<path fill="#FFFFFF" d="M115.802,211.305h10.38v55.827h-10.38V211.305z"/>
		<path fill="#FFFFFF" d="M142.099,211.305h10.382v46.825h27.218v9.233h-37.6V211.305z"/>
		<path fill="#FFFFFF" d="M192.156,211.305h21.914c12.23,0,22.146,7.841,22.146,20.299V246.6c0,13.146-10.843,20.532-21.914,20.532
			h-21.914v-55.827H192.156z M213.61,258.13c5.304,0,11.994-2.765,11.994-10.839v-16.146c0-6.69-5.768-10.616-12.453-10.616h-10.616
			v37.602H213.61z"/>
		<path fill="#FFFFFF" d="M250.521,211.305h38.753v9.229H260.9v13.608h25.375v9.225h-25.147v14.764h28.609v9.233h-39.217V211.305z"
			/>
		<path fill="#FFFFFF" d="M304.27,211.305h22.142c10.615,0,18.921,6.227,18.921,17.529c0,6.69-3.461,13.613-11.075,16.151
			l13.841,22.146h-11.303l-13.149-20.991h-8.997v20.991H304.27V211.305L304.27,211.305z M325.26,237.604
			c5.995,0,10.152-2.998,10.152-8.77c0-6.687-4.385-8.761-10.152-8.761h-10.384v17.298h10.384V237.604z"/>
		<path fill="#FFFFFF" d="M356.171,254.214l9.456-3.693c2.079,5.308,7.155,8.537,13.382,8.537c5.54,0,11.07-2.311,11.07-7.386
			c0-4.148-3.461-5.995-7.609-7.378l-9.456-2.311c-7.387-1.847-13.381-5.304-13.381-15.224c0-10.611,9.224-16.606,20.067-16.606
			c9.229,0,16.151,2.998,19.608,11.535l-8.533,3.688c-2.543-4.616-6.69-6.463-11.999-6.463c-4.611,0-8.992,2.078-8.992,7.154
			c0,3.921,3.689,5.768,8.073,6.923l9.457,2.302c6.69,1.614,12.686,5.54,12.686,15.46c0,10.379-9.225,17.07-21.455,17.07
			C368.397,268.05,359.169,263.67,356.171,254.214z"/>
	</g>
	<g>
		<path fill="#01D2A3" d="M0.229,133.104h38.755v9.227H10.609v13.611h25.146v9.227H10.609v14.764h28.604v9.227H0v-56.055H0.229z"/>
		<path fill="#01D2A3" d="M50.519,170.474v-17.994c0-13.146,10.15-20.529,22.376-20.529c10.611,0,21.223,5.997,21.223,18.453v1.617
			h-9.92v-0.693c0-7.382-6.459-10.15-11.534-10.15c-5.306,0-11.994,2.769-11.994,10.844v17.991c0,6.69,5.767,10.611,12.455,10.611
			c5.076,0,11.073-2.768,11.073-10.149v-0.691h9.92v1.614c0,12.456-10.382,18.453-20.993,18.453
			C61.13,189.85,50.519,182.932,50.519,170.474z"/>
		<path fill="#01D2A3" d="M107.035,170.474v-17.994c0-13.146,11.303-20.529,22.376-20.529c12.226,0,22.837,7.842,22.837,20.3v16.841
			c0,13.147-11.303,20.526-22.376,20.526C117.646,189.85,107.035,182.932,107.035,170.474z M141.869,169.782v-17.993
			c0-6.691-5.768-10.612-12.458-10.612c-5.306,0-11.994,2.769-11.994,10.844v17.991c0,6.69,5.765,10.611,12.455,10.611
			C135.178,180.623,141.869,177.855,141.869,169.782z"/>
		<path fill="#FFFFFF" d="M165.397,170.474v-17.994c0-13.146,10.152-20.529,22.374-20.529c10.615,0,21.223,5.997,21.223,18.453
			v1.617h-9.92v-0.693c0-7.382-6.459-10.15-11.53-10.15c-5.304,0-11.994,2.769-11.994,10.844v17.991
			c0,6.69,5.763,10.611,12.453,10.611c5.076,0,11.071-2.768,11.071-10.149v-0.691h9.92v1.614c0,12.456-10.38,18.453-20.991,18.453
			C176.009,189.85,165.397,182.932,165.397,170.474z"/>
		<path fill="#FFFFFF" d="M223.299,133.104h10.379v55.827h-10.379V133.104z"/>
		<path fill="#FFFFFF" d="M262.283,141.868h-16.147v-8.997h42.446v8.997h-16.151v47.063h-10.375v-47.063H262.283z"/>
		<path fill="#FFFFFF" d="M314.189,166.553L295.5,133.104h11.767l12.458,23.529l12.458-23.529h11.071l-18.917,33.679v22.376h-10.147
			V166.553L314.189,166.553z"/>
		<path fill="#01D2A3" d="M127.104,151.327c-1.152,1.385-2.308,2.999-3.461,4.844c-0.921,1.614-1.845,3.461-2.306,5.538
			c-0.691,2.997,0,5.997,1.844,8.303c0.924,1.155,2.076,2.309,3.462,3c0.691,0.461,1.385,0.691,2.306,0.923c0,0,0,0,0-0.231
			c0-1.845,0-3.691,0-5.536c0,0,0-0.231-0.229-0.231c-1.153-1.153-2.307-2.307-3.229-3.459l-0.232-0.229
			c-0.229-0.232,0-0.694,0.232-0.694c0.229,0,0.462,0,0.462,0.232c0.921,0.921,1.844,1.844,2.768,2.768c0,0,0,0.229,0.229,0.229
			c0,0,0,0,0-0.229c0-1.615,0-3.461,0-5.076c0,0,0-0.229-0.229-0.229c-0.462-0.462-0.924-1.153-1.615-1.615l-0.231-0.231
			c0-0.229,0-0.462,0.231-0.462c0.23,0,0.462,0,0.691,0c0.232,0.462,0.691,0.693,0.924,1.155c0-0.231,0-0.231,0-0.231
			c0-1.383,0-2.768,0-4.153c0-0.229,0-0.459,0.229-0.459c0.231,0,0.231-0.232,0.462,0c0.231,0,0.231,0.229,0.231,0.459
			c0,1.386,0,2.771,0,4.153v0.231c0.46-0.462,0.691-0.693,1.153-1.155c0.229-0.229,0.462-0.229,0.691,0
			c0.231,0.232,0.231,0.462,0,0.693c-0.462,0.462-1.153,1.153-1.615,1.615c0,0-0.229,0.229-0.229,0.462c0,1.614,0,3.229,0,4.844
			v0.229c0.921-0.921,1.615-1.614,2.536-2.306c0.231-0.229,0.462-0.462,0.693-0.691c0.229-0.232,0.462-0.232,0.691,0
			c0.229,0.229,0.229,0.462,0,0.691c0,0,0,0-0.229,0.229c-1.155,1.155-2.309,2.309-3.462,3.229
			c-0.229,0.231-0.229,0.231-0.229,0.462c0,1.847,0,3.461,0,5.306v0.231c0,0,0,0,0.229,0h0.23c2.308-0.923,4.385-2.309,5.999-4.385
			c1.614-2.306,2.306-4.844,1.845-7.611c-0.23-2.076-1.153-4.153-2.077-5.997c-1.614-3-3.69-5.538-5.997-8.073c0,0,0,0-0.229,0"/>
	</g>
</g>
</svg>
