<?xml version="1.0" encoding="utf-8"?>
<!-- Generator: Adobe Illustrator 16.0.0, SVG Export Plug-In . SVG Version: 6.00 Build 0)  -->
<!DOCTYPE svg PUBLIC "-//W3C//DTD SVG 1.1//EN" "http://www.w3.org/Graphics/SVG/1.1/DTD/svg11.dtd">
<svg version="1.1" id="Layer_1" xmlns="http://www.w3.org/2000/svg" xmlns:xlink="http://www.w3.org/1999/xlink" x="0px" y="0px"
	 width="400px" height="29.891px" viewBox="0 185.173 400 29.891" enable-background="new 0 185.173 400 29.891"
	 xml:space="preserve">
<g>
	<path fill="#01D2A3" d="M0.118,185.765h19.929v4.746H5.457v6.998h12.93v4.745H5.457v7.594h14.708v4.744H0v-28.827H0.118z"/>
	<path fill="#01D2A3" d="M26.097,205.102v-9.252c0-6.762,5.219-10.557,11.506-10.557c5.457,0,10.914,3.084,10.914,9.49v0.83h-5.1
		v-0.355c0-3.797-3.322-5.221-5.932-5.221c-2.729,0-6.169,1.424-6.169,5.576v9.252c0,3.438,2.966,5.457,6.406,5.457
		c2.609,0,5.694-1.426,5.694-5.221v-0.355h5.1v0.83c0,6.406-5.337,9.488-10.794,9.488C31.435,214.947,26.097,211.508,26.097,205.102
		z"/>
	<path fill="#01D2A3" d="M55.041,205.102v-9.252c0-6.762,5.812-10.557,11.506-10.557c6.287,0,11.744,4.033,11.744,10.438v8.661
		c0,6.762-5.812,10.557-11.506,10.557C60.498,214.947,55.041,211.508,55.041,205.102z M72.954,204.629v-9.252
		c0-3.441-2.966-5.459-6.406-5.459c-2.729,0-6.168,1.424-6.168,5.576v9.252c0,3.439,2.966,5.457,6.405,5.457
		C69.513,210.203,72.954,208.779,72.954,204.629z"/>
	<path fill="#FFFFFF" d="M85.053,205.102v-9.252c0-6.762,5.219-10.557,11.506-10.557c5.457,0,10.914,3.084,10.914,9.49v0.83h-5.102
		v-0.355c0-3.797-3.321-5.221-5.93-5.221c-2.729,0-6.169,1.424-6.169,5.576v9.252c0,3.438,2.966,5.457,6.406,5.457
		c2.609,0,5.693-1.426,5.693-5.221v-0.355h5.102v0.83c0,6.406-5.338,9.488-10.794,9.488
		C90.51,214.947,85.053,211.508,85.053,205.102z"/>
	<path fill="#FFFFFF" d="M114.828,185.765h5.339v28.708h-5.339V185.765z"/>
	<path fill="#FFFFFF" d="M134.875,190.394h-8.303v-4.629h21.827v4.629h-8.303v24.198h-5.339v-24.198H134.875z"/>
	<path fill="#FFFFFF" d="M161.565,202.969l-9.608-17.204h6.05l6.406,12.102l6.405-12.102h5.694l-9.728,17.319v11.508h-5.219V202.969
		L161.565,202.969z"/>
	<path fill="#FFFFFF" d="M194.307,185.765h12.335c5.576,0,8.897,2.492,8.897,7.473c0,2.611-1.186,4.746-4.035,6.051l0,0
		c3.321,0.83,4.982,3.68,4.982,6.881c0,5.455-4.269,8.303-9.015,8.303h-13.049v-28.708H194.307z M206.051,197.509
		c2.728,0,4.271-1.422,4.271-3.676c0-2.492-1.779-3.559-4.509-3.559h-6.051v7.234H206.051z M206.404,209.963
		c2.849,0,4.629-1.422,4.629-4.031c0-2.611-1.661-3.795-4.629-3.795h-6.76v7.826H206.404z"/>
	<path fill="#FFFFFF" d="M223.249,204.629v-18.864h5.34v18.151c0,3.557,1.66,6.168,5.932,6.168c3.913,0,5.932-2.018,5.932-6.168
		v-18.151h5.337v18.387c0,6.881-4.507,10.795-11.269,10.795S223.249,211.508,223.249,204.629z"/>
	<path fill="#FFFFFF" d="M253.737,185.765h5.337v28.708h-5.337V185.765z"/>
	<path fill="#FFFFFF" d="M267.38,185.765h5.335v24.083h13.999v4.744H267.38V185.765z"/>
	<path fill="#FFFFFF" d="M293.12,185.765h11.269c6.287,0,11.389,4.035,11.389,10.441v7.709c0,6.762-5.576,10.557-11.27,10.557
		h-11.269v-28.708H293.12z M304.152,209.727c2.728,0,6.168-1.424,6.168-5.574v-8.303c0-3.441-2.966-5.455-6.406-5.455h-5.457v19.333
		H304.152L304.152,209.727z"/>
	<path fill="#FFFFFF" d="M323.131,185.765h19.93v4.746h-14.59v6.998h12.93v4.745h-12.93v7.594h14.707v4.744h-20.166v-28.827H323.131
		z"/>
	<path fill="#FFFFFF" d="M350.771,185.765h11.391c5.454,0,9.725,3.205,9.725,9.018c0,3.438-1.779,6.997-5.692,8.301l7.115,11.389
		h-5.813l-6.762-10.793h-4.625v10.793h-5.339V185.765L350.771,185.765z M361.447,199.169c3.085,0,5.219-1.541,5.219-4.506
		c0-3.439-2.253-4.508-5.219-4.508h-5.338v8.895h5.338V199.169z"/>
	<path fill="#FFFFFF" d="M377.462,207.83l4.862-1.898c1.067,2.729,3.678,4.391,6.882,4.391c2.847,0,5.692-1.189,5.692-3.797
		c0-2.135-1.777-3.084-3.915-3.797l-4.862-1.186c-3.797-0.947-6.882-2.729-6.882-7.827c0-5.459,4.748-8.543,10.322-8.543
		c4.743,0,8.303,1.541,10.083,5.932l-4.391,1.896c-1.303-2.371-3.44-3.32-6.167-3.32c-2.372,0-4.627,1.066-4.627,3.676
		c0,2.02,1.899,2.967,4.151,3.561l4.863,1.186c3.44,0.83,6.525,2.846,6.525,7.948c0,5.34-4.746,8.777-11.03,8.777
		C383.749,214.947,378.887,212.693,377.462,207.83z"/>
	<path fill="#01D2A3" d="M65.361,195.257c-0.593,0.711-1.186,1.541-1.78,2.49c-0.474,0.83-0.948,1.781-1.186,2.848
		c-0.356,1.541,0,3.084,0.949,4.27c0.474,0.594,1.067,1.186,1.779,1.541c0.355,0.236,0.712,0.355,1.186,0.475c0,0,0,0,0-0.119
		c0-0.949,0-1.896,0-2.846c0,0,0-0.117-0.118-0.117c-0.593-0.594-1.186-1.189-1.661-1.781l-0.119-0.119
		c-0.118-0.119,0-0.355,0.119-0.355c0.118,0,0.237,0,0.237,0.117c0.474,0.477,0.949,0.949,1.423,1.424c0,0,0,0.121,0.118,0.121
		c0,0,0,0,0-0.121c0-0.83,0-1.777,0-2.606c0,0,0-0.119-0.118-0.119c-0.237-0.24-0.475-0.596-0.831-0.83l-0.119-0.121
		c0-0.119,0-0.238,0.119-0.238c0.118,0,0.238,0,0.356,0c0.119,0.238,0.355,0.359,0.475,0.594c0-0.119,0-0.119,0-0.119
		c0-0.711,0-1.424,0-2.135c0-0.119,0-0.236,0.118-0.236c0.119,0,0.119-0.119,0.237,0c0.119,0,0.119,0.117,0.119,0.236
		c0,0.711,0,1.424,0,2.135v0.119c0.238-0.234,0.355-0.355,0.593-0.594c0.118-0.119,0.237-0.119,0.355,0
		c0.119,0.119,0.119,0.238,0,0.359c-0.237,0.234-0.593,0.59-0.831,0.83c0,0-0.118,0.119-0.118,0.237c0,0.828,0,1.658,0,2.488v0.121
		c0.474-0.477,0.831-0.832,1.304-1.188c0.119-0.119,0.237-0.238,0.356-0.357c0.118-0.117,0.238-0.117,0.355,0
		c0.12,0.119,0.12,0.238,0,0.357c0,0,0,0-0.118,0.119c-0.594,0.592-1.187,1.184-1.78,1.662c-0.118,0.117-0.118,0.117-0.118,0.236
		c0,0.947,0,1.777,0,2.727v0.119c0,0,0,0,0.118,0h0.12c1.186-0.475,2.253-1.186,3.083-2.252c0.831-1.188,1.186-2.492,0.949-3.916
		c-0.118-1.065-0.593-2.135-1.068-3.084c-0.83-1.541-1.898-2.846-3.084-4.152c0,0,0,0-0.118,0"/>
</g>
</svg>
